<svg xmlns="http://www.w3.org/2000/svg" id="Layer_1" data-name="Layer 1" viewBox="0 0 752.33 752.29"><defs><style>      .cls-1 {        fill: none;        stroke: #fff;        stroke-miterlimit: 10;        stroke-width: 10px;      }      .cls-2 {        fill: #eef3f7;      }      .cls-2, .cls-3, .cls-4, .cls-5, .cls-6, .cls-7, .cls-8, .cls-9, .cls-10, .cls-11, .cls-12, .cls-13, .cls-14 {        stroke-width: 0px;      }      .cls-3 {        fill: #0f7986;      }      .cls-4 {        fill: #b3b3b3;      }      .cls-5 {        fill: #666;      }      .cls-6 {        fill: #076673;      }      .cls-7 {        fill: #ebecec;      }      .cls-8 {        fill: #f0ba7d;      }      .cls-9 {        fill: #21d0c3;      }      .cls-10 {        fill: #15bdb2;      }      .cls-11 {        fill: #fff;      }      .cls-12 {        fill: #fefefe;      }      .cls-13 {        fill: #fed298;      }      .cls-14 {        fill: #4d4d4d;      }    </style></defs><g><path class="cls-4" d="M317.85,327.76h116.59l.63,7.97-56.98,86.37-61.21-87.23.95-7.11h0Z"></path><path class="cls-8" d="M318.61,306.09l-1.01,48.72-82.66,45.2v165.69h278.3v-165.69l-76.83-47.75-4.22-48.71-113.58,2.54h0s0,0,0,0Z"></path><path class="cls-13" d="M280.41,164.02s-4.74-10.41-17.46-5.25c-12.72,5.15.57,56.61,5.43,63.8,4.86,7.18,12.69,2.62,15.54,2.33,4.05,30.68,4.42,51.82,16.69,64.76,11.63,12.25,38.26,37.21,52.29,45.91,9.5,2.01,16.59,3.18,23.26,3.54,6.66-.35,13.76-1.53,23.26-3.54,14.03-8.7,40.66-33.67,52.29-45.91,12.28-12.94,12.64-34.07,16.69-64.76,2.85.29,10.67,4.84,15.54-2.33,4.86-7.18,18.17-58.64,5.43-63.8-12.72-5.16-17.46,5.25-17.46,5.25,0,0,12.58-40.41-9.78-80.19-15.32-27.26-50.27-41.4-85.97-42.44-35.7,1.03-70.65,15.18-85.97,42.44-22.36,39.78-9.78,80.19-9.78,80.19h-.02Z"></path><polygon class="cls-9" points="277.07 369.15 277.06 369.16 277.06 369.15 277.07 369.15"></polygon><path class="cls-9" d="M537.37,474.73l-3.54,19.18s.01.01,0,.02l-6.48,35.16-.33,1.76-2.43,13.19-.25,1.37-4.81,26.08h0s-.06.33-.06.33l-2.37,12.85-.32,1.77-26.35,142.92c-35.99,11.64-74.39,17.93-114.26,17.93h-.01c-33.23,0-65.43-4.36-96.07-12.56l-84.2-251.57,18.08-25.39,1.83-2.57h0s5.15-7.23,5.15-7.23l1.59-2.24.04-.06,7.23-10.15,5.12-7.19,33.02-46.37h0s8.99-12.63,8.99-12.63l.12-.17s.01.09.02.13c.29,2.37.78,4.67,1.44,6.88,4.49,15.14,17.17,26.6,34.08,34.44,35.84,16.64,90.63,17.05,126.55,1.88h.01c18.78-7.93,32.4-20.12,35.45-36.48.38-2.03.6-4.11.63-6.27.02-.19.02-.38.02-.58l.42.72,6.31,10.72,31.24,53.1,21.08,35.83,3.06,5.2Z"></path><path class="cls-11" d="M376.17,581.96v165.33h-.01c-33.23,0-65.43-4.36-96.07-12.56-21.55-5.75-42.32-13.4-62.13-22.75l-2.66-70.44c-.05-.86-.7-1.55-1.55-1.64-.85-.1-1.64.41-1.9,1.24l-17.9,58.42c-38.06-21.49-71.95-49.5-100.14-82.52,35.17-186.67,1.37-188.4,131.22-230.97,4.11-1.35,8.37-2.74,12.82-4.17h0c11.78-3.81,24.76-7.95,39.08-12.57.05-.01.09-.03.14-.04,5.78-1.87,11.78-3.8,18.01-5.83h.01s1.13,3.03,1.13,3.03l16.37,44.12,57.54,155.09,6.03,16.26Z"></path><path class="cls-2" d="M658.52,617.04c-28.19,33.02-62.08,61.04-100.15,82.52l-17.91-58.41c-.25-.83-1.04-1.35-1.9-1.24-.86.1-1.5.79-1.55,1.64l-2.64,70.43-43.94,17.38c-35.99,11.64-74.39,17.93-114.26,17.93v-165.33l6.04-16.26,56.94-153.21h.01l17.66-47.53.37-1c6.24,2.01,12.26,3.94,18.05,5.78.15.05.3.1.44.14,10.37,3.31,20.04,6.37,29.06,9.24,4.84,1.54,9.5,3.02,13.97,4.46,140.01,44.94,103.89,42.79,139.81,233.46Z"></path><path class="cls-12" d="M523.86,588.59c-16.33-2.82-27.27-18.34-24.45-34.66,2.82-16.32,18.34-27.27,34.66-24.46,16.33,2.82,27.27,18.34,24.45,34.66-2.82,16.32-18.34,27.27-34.66,24.45h0Z"></path><path class="cls-9" d="M524.16,586.87c-15.37-2.66-25.68-17.27-23.03-32.64,2.66-15.37,17.27-25.69,32.64-23.03s25.68,17.27,23.03,32.65c-2.66,15.37-17.27,25.68-32.64,23.02Z"></path><path class="cls-7" d="M526.31,574.44c-8.5-1.46-14.21-9.56-12.74-18.06,1.46-8.51,9.56-14.21,18.06-12.74,8.5,1.47,14.21,9.56,12.74,18.06-1.46,8.51-9.56,14.21-18.06,12.74Z"></path><path class="cls-12" d="M528.14,545.31l6.87,1.19,3.69-21.39-6.87-1.19-3.69,21.39Z"></path><path class="cls-9" d="M298.12,594.53l12.87-2.55c5.47-1.09,10-4.31,12.88-8.63s4.14-9.73,3.05-15.2l-15.13-76.25c-5.71-28.78-28.23-43.45-53.95-46.7-9.86-1.25-20.19-.79-30.2,1.19-10.01,1.98-19.73,5.51-28.36,10.42-22.48,12.8-37.62,34.92-31.9,63.75l15.13,76.25c1.09,5.47,4.31,9.99,8.63,12.88h0c4.32,2.88,9.73,4.13,15.19,3.05l12.86-2.55-1.05-5.31-12.87,2.55c-4.01.79-7.98-.12-11.15-2.23h0c-3.17-2.12-5.53-5.44-6.33-9.45l-15.13-76.25c-5.19-26.15,8.69-46.31,29.25-58.01,8.13-4.63,17.29-7.95,26.75-9.83,9.46-1.87,19.2-2.29,28.49-1.13,23.54,2.97,44.13,16.31,49.31,42.41l15.14,76.25c.79,4.01-.13,7.98-2.24,11.15-2.12,3.16-5.44,5.53-9.45,6.32l-12.87,2.55,1.05,5.31h0Z"></path><path class="cls-14" d="M315.87,503.19l-2.32-11.65c-5.89-29.67-29.05-44.79-55.49-48.13-10.05-1.27-20.57-.82-30.77,1.21-10.2,2.02-20.1,5.61-28.89,10.62-23.12,13.16-38.68,35.95-32.78,65.66l2.32,11.65,8.83-1.76-2.32-11.64c-5.01-25.26,8.44-44.76,28.37-56.1,7.96-4.54,16.94-7.79,26.22-9.63,9.28-1.84,18.82-2.26,27.92-1.1,22.82,2.88,42.75,15.77,47.76,40.98l2.31,11.65,8.84-1.75Z"></path><g><path class="cls-6" d="M209.01,613.37l6.88-1.37c1.73,1.94,4.4,2.93,7.13,2.39,4.1-.82,6.76-4.79,5.95-8.89-.81-4.09-4.79-6.75-8.89-5.94-2.73.54-4.82,2.48-5.67,4.94l-6.88,1.37,1.49,7.5Z"></path><path class="cls-6" d="M303.59,594.6l-6.88,1.37c-.85,2.44-2.94,4.39-5.67,4.94-4.1.81-8.08-1.85-8.89-5.95-.81-4.09,1.85-8.07,5.94-8.88,2.73-.54,5.41.46,7.12,2.39l6.88-1.37,1.49,7.5h0Z"></path></g><path class="cls-5" d="M231.48,443.94l-2.63-13.23-5.22,1.04-5.22,1.03,2.66,13.36c1.99-.58,4-1.07,6.04-1.47,1.45-.29,2.91-.53,4.37-.72h0s0,0,0,0Z"></path><g><path class="cls-3" d="M220.22,606.02c1.24-.25,2.05-1.46,1.8-2.69-.24-1.24-1.45-2.05-2.69-1.8-1.24.25-2.05,1.45-1.8,2.69.25,1.24,1.45,2.05,2.69,1.8h0Z"></path><path class="cls-3" d="M288.28,592.48c1.24-.24,2.04-1.45,1.8-2.69-.25-1.25-1.45-2.05-2.69-1.8-1.24.25-2.05,1.45-1.8,2.69.24,1.24,1.45,2.04,2.69,1.8h0Z"></path></g><path class="cls-12" d="M525.47,574.3c-8.04-1.39-13.44-9.03-12.05-17.08,1.39-8.04,9.03-13.43,17.08-12.05,8.04,1.39,13.44,9.03,12.05,17.08-1.39,8.04-9.04,13.44-17.08,12.05h0Z"></path><g><path class="cls-14" d="M295.17,359.27c-.23,0-81.47.68-67.75,71.74l-7.55,1.44c-15.47-80.12,74.96-80.86,75.21-80.86l.09,7.68Z"></path><path class="cls-14" d="M457.28,351.97c13.25.35,38.88,3.97,58.59,27.96,19.3,23.47,32.83,66.58,22.71,145.63l-7.61-.97c9.79-76.5-2.86-117.69-21.03-139.79-17.74-21.58-40.88-24.84-52.85-25.16l.18-7.67h0s0,0,0,0Z"></path></g><path class="cls-12" d="M376.16,339.1s-16.09-.85-23.33-2.99c-7.25-2.14-52.29-45.91-52.29-45.91l1.41-64.5,62.91-2.87s7.49-4.46,11.31-3.52c3.83-.94,11.31,3.52,11.31,3.52l62.91,2.87,1.41,64.5s-45.05,43.77-52.29,45.91c-7.24,2.14-23.33,2.99-23.33,2.99Z"></path><path class="cls-2" d="M376.16,219.3l5.09,17.79-2.71,12.42,5.58,29.94-5.86,28.63-2.1,31.01s16.09-.85,23.33-2.99c7.25-2.14,52.29-45.91,52.29-45.91l-1.41-64.5-62.91-2.87s-7.49-4.46-11.31-3.52h0Z"></path><g><path class="cls-9" d="M276.08,151.29l30.52,76.02-3.58,1.37-30.52-76.02,3.58-1.37Z"></path><path class="cls-9" d="M478.65,153.75l-28.72,76.05-3.71-1.04,28.72-76.05,3.71,1.04Z"></path><path class="cls-9" d="M375.88,23.58s-94.28,14.14-101.92,33.91-14.01,15.28-12.11,38.65c1.91,23.36,1.09,62.63,1.09,62.63,80.86-29.48,145.76-30.55,225.87,0,0,0-.82-39.26,1.09-62.63,1.91-23.36-4.46-18.87-12.11-38.65-7.65-19.77-101.92-33.91-101.92-33.91h0Z"></path></g><path class="cls-10" d="M375.88,23.58l-.46.07s93.08,23.67,94.04,30.85c.96,7.18-3.55,13.98,7.33,17.67,10.88,3.7,7.96,20.67,7.96,20.67l-1.69,64.57.53.62,5.24.72s-.82-39.26,1.09-62.63c1.91-23.36-4.46-18.87-12.11-38.65-7.65-19.77-101.92-33.91-101.92-33.91v.02h0Z"></path></g><path class="cls-1" d="M747.33,376.14c0,91.94-33.44,176.07-88.81,240.9-28.19,33.02-62.08,61.04-100.15,82.52-7.82,4.42-15.83,8.57-24,12.42-14.17,6.69-28.84,12.51-43.94,17.38-35.99,11.64-74.39,17.93-114.26,17.93h-.01c-33.23,0-65.43-4.36-96.07-12.56-21.55-5.75-42.32-13.4-62.13-22.75-8.17-3.85-16.18-8-24.01-12.42-38.06-21.49-71.95-49.5-100.14-82.52C38.43,552.21,5,468.08,5,376.14,5,171.16,171.17,5,376.16,5s371.17,166.16,371.17,371.14Z"></path></svg>